<svg xmlns="http://www.w3.org/2000/svg"
 viewBox="0 0 1123.000000 944.000000"
 preserveAspectRatio="xMidYMid meet">
<g transform="translate(0.000000,944.000000) scale(0.100000,-0.100000)"
fill="black" stroke="none">
<path d="M685 8891 c-59 -36 -70 -57 -74 -144 -6 -143 31 -302 109 -462 21
-44 82 -152 136 -240 166 -276 207 -387 208 -570 1 -188 -38 -294 -222 -615
-174 -302 -232 -474 -232 -692 0 -230 65 -417 257 -740 145 -245 195 -384 196
-553 2 -177 -45 -311 -202 -578 -184 -314 -238 -459 -248 -674 -12 -250 44
-431 233 -749 169 -286 216 -414 216 -589 1 -164 -26 -254 -150 -502 -152
-304 -195 -453 -196 -688 -1 -176 9 -204 84 -242 l44 -23 4576 0 c4336 0 4577
1 4610 18 55 27 77 69 85 164 16 195 57 322 174 538 197 364 240 494 241 723
0 231 -60 411 -237 710 -218 367 -260 556 -181 816 25 83 84 201 177 355 181
298 242 477 244 706 1 227 -57 404 -228 695 -161 272 -205 377 -226 542 -21
161 28 338 154 555 183 318 214 382 263 544 21 72 27 116 31 230 10 264 -43
425 -256 783 -148 248 -182 338 -199 524 -10 105 -24 132 -84 163 -23 12 -699
14 -4650 14 -4483 0 -4624 -1 -4653 -19z m875 -337 c42 -164 128 -303 316
-509 70 -77 147 -167 172 -200 180 -243 188 -490 24 -732 -22 -32 -80 -103
-128 -156 -49 -54 -115 -128 -147 -165 -274 -315 -332 -662 -167 -997 58 -118
130 -216 261 -357 226 -244 299 -382 299 -568 0 -88 -16 -155 -59 -247 -44
-93 -101 -170 -231 -308 -128 -138 -191 -218 -251 -323 -88 -153 -129 -344
-109 -503 28 -227 124 -400 363 -655 128 -138 187 -215 227 -300 81 -173 81
-328 0 -500 -44 -92 -97 -160 -259 -336 -62 -68 -136 -154 -164 -193 -66 -93
-131 -232 -153 -328 l-18 -77 -274 0 -275 0 6 87 c8 131 46 242 162 478 149
303 177 398 178 605 1 237 -60 421 -244 725 -267 442 -276 686 -41 1084 138
233 172 296 207 385 147 365 102 682 -158 1113 -148 246 -206 396 -214 558 -8
169 33 306 158 525 149 260 180 317 214 403 102 255 110 501 23 746 -39 110
-79 189 -193 381 -51 85 -104 178 -119 207 -28 57 -76 193 -76 217 0 15 34 16
326 14 l326 -3 18 -71z m1021 -3 c42 -166 129 -301 343 -536 223 -243 289
-368 289 -550 1 -185 -80 -335 -313 -579 -169 -178 -277 -353 -321 -521 -32
-122 -30 -291 5 -408 54 -180 133 -304 336 -527 144 -158 196 -229 241 -324
31 -66 59 -177 59 -236 0 -64 -29 -174 -65 -246 -47 -97 -100 -167 -248 -327
-182 -198 -255 -307 -308 -463 -90 -266 -45 -525 139 -782 25 -36 106 -130
180 -210 136 -148 189 -218 235 -307 89 -178 80 -370 -28 -554 -43 -72 -94
-135 -240 -291 -120 -128 -191 -223 -240 -320 -34 -69 -69 -171 -80 -232 l-6
-38 -374 0 -373 0 10 38 c31 116 111 232 290 422 162 172 235 278 292 424 46
114 59 196 53 331 -6 138 -28 229 -84 338 -69 139 -128 215 -320 420 -173 184
-245 333 -244 506 1 187 72 319 311 576 243 262 340 466 340 716 0 256 -97
458 -355 739 -126 138 -177 203 -224 292 -93 173 -95 352 -6 527 44 86 86 141
229 299 152 167 195 225 257 345 128 248 133 508 15 752 -59 120 -137 228
-275 377 -63 68 -135 150 -159 183 -42 56 -102 171 -117 223 l-6 22 371 -2
372 -3 19 -74z m1016 25 c24 -112 93 -254 180 -368 24 -32 97 -116 162 -187
248 -270 317 -420 289 -623 -21 -157 -98 -288 -285 -488 -270 -289 -364 -480
-366 -740 -1 -141 17 -217 83 -355 62 -131 119 -209 284 -390 76 -82 153 -173
172 -202 94 -142 134 -287 116 -416 -23 -158 -98 -287 -279 -479 -249 -265
-343 -432 -374 -666 -29 -215 48 -451 217 -660 34 -42 110 -128 169 -191 162
-174 230 -286 261 -432 19 -88 13 -159 -21 -269 -35 -108 -119 -229 -279 -399
-74 -79 -158 -177 -186 -217 -67 -97 -124 -220 -146 -317 l-18 -77 -369 0
-370 0 6 36 c8 47 68 165 118 231 21 28 95 112 164 185 232 245 328 420 355
647 26 210 -41 429 -194 631 -35 47 -114 138 -175 203 -215 229 -281 356 -281
542 0 95 18 172 61 258 43 85 92 149 237 306 137 149 191 220 251 332 202 374
125 736 -239 1122 -189 201 -239 273 -285 411 -42 124 -35 262 17 386 33 77
123 200 225 310 230 246 315 381 369 586 28 108 23 274 -10 389 -55 186 -141
320 -346 540 -156 167 -232 280 -265 393 l-6 22 373 0 374 0 11 -54z m1025
-20 c37 -162 127 -306 334 -532 201 -221 263 -322 290 -476 36 -206 -41 -381
-282 -638 -272 -291 -366 -480 -366 -740 0 -139 22 -233 86 -365 59 -122 120
-205 271 -370 151 -166 213 -250 254 -350 46 -110 57 -203 36 -306 -32 -159
-95 -263 -276 -456 -202 -215 -304 -374 -350 -548 -31 -115 -31 -291 -1 -399
50 -175 132 -310 299 -490 263 -284 336 -412 337 -596 0 -97 -17 -166 -65
-266 -44 -90 -102 -164 -250 -321 -205 -215 -291 -363 -334 -575 l-5 -28 -374
0 -374 0 14 48 c36 121 101 214 280 404 143 152 201 228 259 339 72 139 98
240 98 389 1 146 -19 234 -83 365 -57 118 -106 186 -227 318 -179 195 -223
249 -264 322 -115 206 -110 408 16 611 25 39 106 138 181 220 75 82 158 177
185 212 61 81 130 214 165 322 24 75 27 101 28 215 0 154 -19 237 -89 382 -55
112 -128 210 -280 373 -209 225 -285 369 -285 543 0 97 18 173 61 260 42 83
92 149 227 295 145 158 222 263 277 376 106 220 120 411 45 633 -51 153 -139
284 -316 473 -163 174 -244 293 -279 408 l-6 22 373 0 373 0 17 -74z m1019 -6
c46 -179 126 -303 374 -570 185 -201 255 -341 255 -515 -1 -103 -12 -152 -60
-250 -47 -98 -106 -176 -241 -320 -221 -236 -318 -410 -350 -627 -39 -265 62
-513 326 -801 161 -175 220 -252 265 -343 91 -183 86 -357 -16 -541 -44 -79
-86 -132 -223 -278 -188 -201 -282 -351 -332 -530 -31 -110 -31 -285 0 -400
45 -169 130 -306 308 -500 158 -172 218 -250 264 -342 100 -201 79 -403 -62
-610 -16 -23 -92 -110 -170 -195 -218 -236 -296 -360 -341 -541 l-21 -87 -370
0 -369 0 6 33 c10 49 61 153 110 222 25 34 95 115 157 181 124 131 175 193
225 271 154 242 188 483 102 742 -53 159 -136 281 -342 499 -198 210 -269 350
-269 527 0 184 65 307 295 557 268 294 360 481 361 738 1 263 -96 459 -372
755 -205 219 -281 365 -281 541 0 100 16 166 62 259 44 86 86 141 236 305 73
80 158 182 188 226 167 249 212 502 132 747 -52 163 -140 297 -322 494 -66 70
-140 155 -164 188 -42 56 -102 171 -117 223 l-6 22 371 -2 372 -3 19 -75z
m1009 38 c53 -206 137 -343 355 -578 210 -226 285 -369 285 -545 0 -185 -78
-330 -320 -590 -121 -131 -189 -223 -243 -330 -114 -226 -127 -441 -38 -671
56 -144 148 -276 327 -465 197 -208 274 -360 274 -539 0 -183 -78 -331 -292
-558 -144 -152 -218 -252 -278 -376 -68 -142 -85 -214 -84 -366 0 -151 15
-214 84 -356 60 -124 134 -224 278 -376 212 -225 292 -375 292 -550 0 -94 -16
-160 -60 -253 -46 -95 -103 -169 -267 -345 -181 -195 -267 -335 -307 -502
l-21 -88 -368 0 -369 0 7 37 c9 51 75 179 123 239 22 28 94 109 161 180 256
271 354 475 353 729 0 141 -24 235 -96 380 -62 124 -110 187 -291 382 -69 75
-145 168 -170 207 -101 162 -125 332 -71 491 46 135 94 202 300 425 233 251
330 460 329 705 -2 260 -106 465 -385 762 -198 210 -270 352 -270 528 0 99 13
156 57 248 43 92 84 146 234 310 193 212 266 322 320 482 74 221 57 425 -54
645 -50 100 -142 220 -290 380 -141 151 -218 268 -250 378 l-6 22 370 0 370 0
11 -42z m1016 15 c44 -201 138 -356 363 -598 202 -217 281 -366 281 -533 0
-198 -71 -332 -315 -592 -177 -189 -267 -333 -317 -505 -18 -64 -22 -106 -22
-210 -1 -154 13 -210 84 -361 57 -118 129 -216 275 -374 131 -141 187 -215
231 -303 107 -211 80 -427 -78 -642 -25 -33 -93 -111 -153 -174 -187 -198
-284 -351 -336 -526 -20 -68 -24 -101 -23 -220 0 -126 3 -149 28 -225 59 -177
138 -298 326 -495 169 -178 252 -303 285 -431 19 -75 19 -190 -1 -268 -35
-134 -106 -239 -310 -456 -187 -198 -280 -354 -315 -527 l-13 -63 -372 0 -373
0 16 53 c33 110 97 207 240 359 248 265 333 401 378 603 26 115 17 302 -19
408 -59 175 -134 289 -320 487 -197 210 -274 338 -297 496 -14 93 -1 187 40
284 38 91 88 164 190 276 252 278 290 331 352 473 50 117 69 209 69 333 -1
264 -97 457 -381 763 -51 55 -112 127 -137 160 -110 149 -155 304 -132 450 22
137 81 248 207 388 264 294 290 327 353 459 73 150 85 203 84 373 0 141 -2
156 -32 245 -56 168 -147 306 -329 500 -155 165 -247 298 -269 393 l-6 27 371
0 371 0 6 -27z m1024 -15 c53 -205 127 -327 347 -569 143 -159 186 -215 233
-314 61 -128 75 -237 45 -362 -33 -140 -106 -256 -280 -443 -59 -63 -129 -144
-155 -179 -254 -338 -274 -693 -58 -1026 58 -90 85 -123 226 -279 133 -146
181 -212 227 -311 95 -204 68 -401 -82 -613 -25 -35 -93 -114 -151 -175 -189
-200 -297 -371 -343 -542 -28 -103 -30 -287 -5 -389 37 -153 134 -317 285
-484 211 -233 246 -277 291 -373 65 -140 76 -261 37 -397 -40 -137 -102 -228
-309 -449 -172 -185 -266 -340 -304 -506 l-18 -77 -372 0 -373 0 16 53 c35
117 101 212 279 402 181 192 260 311 315 475 27 81 33 114 37 220 4 105 1 139
-16 205 -53 210 -132 339 -341 560 -178 189 -246 292 -281 430 -25 99 -25 161
0 260 35 138 99 237 278 428 182 195 266 321 324 488 32 91 33 99 33 249 -1
149 -2 159 -33 250 -60 174 -132 284 -311 479 -189 204 -227 259 -277 393 -35
94 -40 241 -10 328 43 128 111 230 271 400 186 199 270 325 324 485 73 217 55
429 -53 643 -53 104 -121 194 -270 357 -76 82 -158 181 -183 219 -44 65 -92
166 -93 194 0 9 80 12 370 12 l369 0 11 -42z m1125 -5 c18 -125 90 -291 221
-510 95 -158 157 -282 191 -381 24 -69 27 -91 27 -222 0 -138 -1 -150 -31
-237 -38 -110 -70 -175 -169 -345 -104 -177 -179 -338 -209 -442 -92 -324 -39
-582 204 -994 162 -276 212 -413 212 -587 0 -179 -56 -325 -245 -643 -211
-357 -259 -620 -170 -931 29 -101 116 -286 201 -426 84 -139 157 -288 185
-376 20 -63 23 -95 23 -214 -1 -131 -3 -146 -33 -235 -17 -52 -59 -147 -92
-210 -196 -375 -234 -465 -267 -638 l-17 -92 -443 0 c-508 0 -464 -11 -419
100 38 92 104 185 226 314 144 153 197 217 253 307 182 294 182 624 0 918 -56
90 -116 163 -246 301 -193 205 -269 356 -270 535 -1 176 66 308 265 524 220
240 308 375 360 556 33 115 33 315 0 430 -50 173 -139 314 -332 524 -174 190
-228 271 -269 405 -26 83 -28 202 -5 290 34 132 98 227 303 451 123 134 176
208 236 330 76 155 89 211 90 380 0 119 -3 151 -23 215 -55 177 -145 317 -325
512 -56 61 -124 138 -151 172 -49 62 -118 188 -130 239 l-6 27 424 0 424 0 7
-47z"/>
</g>
</svg>
