<?xml version="1.0" encoding="utf-8"?>
<!-- Generator: Adobe Illustrator 25.4.1, SVG Export Plug-In . SVG Version: 6.00 Build 0)  -->
<svg version="1.1" xmlns="http://www.w3.org/2000/svg" xmlns:xlink="http://www.w3.org/1999/xlink" x="0px" y="0px" width="820px"
	 height="630.404px" viewBox="0 0 820 630.404" style="enable-background:new 0 0 820 630.404;" xml:space="preserve">
<style type="text/css">
	.st0{fill:#F5F5F5;}
	.st1{opacity:0.25;}
	.st2{fill:#333333;}
	.st3{fill:#1CD0BB;}
	.st4{fill:#FFFFFF;}
	.st5{fill:#00A9D7;}
	.st6{fill:#318DDE;}
	.st7{fill:#6E7C7C;}
</style>
<g id="stackedChart">
	<rect x="91.186" y="119.393" class="st0" width="648.888" height="387.842"/>
	<g class="st1">
		<path class="st2" d="M138.601,508.77c-0.21,0-0.381-0.17-0.381-0.381v-389.05c0-0.21,0.171-0.381,0.381-0.381
			s0.381,0.171,0.381,0.381v389.05C138.982,508.6,138.812,508.77,138.601,508.77z"/>
		<path class="st2" d="M181.242,508.77c-0.21,0-0.381-0.17-0.381-0.381v-389.05c0-0.21,0.171-0.381,0.381-0.381
			s0.381,0.171,0.381,0.381v389.05C181.623,508.6,181.452,508.77,181.242,508.77z"/>
		<path class="st2" d="M223.882,508.77c-0.21,0-0.381-0.17-0.381-0.381v-389.05c0-0.21,0.171-0.381,0.381-0.381
			s0.381,0.171,0.381,0.381v389.05C224.264,508.6,224.093,508.77,223.882,508.77z"/>
		<path class="st2" d="M266.523,508.77c-0.21,0-0.381-0.17-0.381-0.381v-389.05c0-0.21,0.171-0.381,0.381-0.381
			s0.381,0.171,0.381,0.381v389.05C266.904,508.6,266.733,508.77,266.523,508.77z"/>
		<path class="st2" d="M309.164,508.77c-0.21,0-0.381-0.17-0.381-0.381v-389.05c0-0.21,0.171-0.381,0.381-0.381
			s0.381,0.171,0.381,0.381v389.05C309.545,508.6,309.374,508.77,309.164,508.77z"/>
		<path class="st2" d="M351.804,508.77c-0.21,0-0.381-0.17-0.381-0.381v-389.05c0-0.21,0.171-0.381,0.381-0.381
			s0.381,0.171,0.381,0.381v389.05C352.186,508.6,352.015,508.77,351.804,508.77z"/>
		<path class="st2" d="M394.445,508.77c-0.21,0-0.381-0.17-0.381-0.381v-389.05c0-0.21,0.171-0.381,0.381-0.381
			s0.381,0.171,0.381,0.381v389.05C394.826,508.6,394.655,508.77,394.445,508.77z"/>
		<path class="st2" d="M437.085,508.77c-0.211,0-0.382-0.17-0.382-0.381v-389.05c0-0.21,0.171-0.381,0.382-0.381
			s0.382,0.171,0.382,0.381v389.05C437.467,508.6,437.296,508.77,437.085,508.77z"/>
	</g>
	<g class="st1">
		<path class="st2" d="M480.992,508.77c-0.211,0-0.382-0.17-0.382-0.381v-389.05c0-0.21,0.171-0.381,0.382-0.381
			s0.382,0.171,0.382,0.381v389.05C481.374,508.6,481.203,508.77,480.992,508.77z"/>
		<path class="st2" d="M523.633,508.77c-0.211,0-0.382-0.17-0.382-0.381v-389.05c0-0.21,0.171-0.381,0.382-0.381
			s0.382,0.171,0.382,0.381v389.05C524.015,508.6,523.844,508.77,523.633,508.77z"/>
		<path class="st2" d="M566.273,508.77c-0.211,0-0.382-0.17-0.382-0.381v-389.05c0-0.21,0.171-0.381,0.382-0.381
			s0.382,0.171,0.382,0.381v389.05C566.655,508.6,566.484,508.77,566.273,508.77z"/>
		<path class="st2" d="M608.914,508.77c-0.211,0-0.382-0.17-0.382-0.381v-389.05c0-0.21,0.171-0.381,0.382-0.381
			s0.382,0.171,0.382,0.381v389.05C609.296,508.6,609.125,508.77,608.914,508.77z"/>
		<path class="st2" d="M651.555,508.77c-0.211,0-0.382-0.17-0.382-0.381v-389.05c0-0.21,0.171-0.381,0.382-0.381
			s0.382,0.171,0.382,0.381v389.05C651.937,508.6,651.766,508.77,651.555,508.77z"/>
		<path class="st2" d="M694.195,508.77c-0.211,0-0.382-0.17-0.382-0.381v-389.05c0-0.21,0.171-0.381,0.382-0.381
			s0.382,0.171,0.382,0.381v389.05C694.577,508.6,694.406,508.77,694.195,508.77z"/>
	</g>
	<g>
		
			<rect x="165.479" y="85.729" transform="matrix(3.868379e-11 -1 1 3.868379e-11 4.8374 387.2715)" class="st3" width="61.152" height="210.976"/>
		<path class="st4" d="M302.042,222.293H90.066v-62.152h211.976V222.293z M91.066,221.293h209.976v-60.152H91.066V221.293z"/>
	</g>
	<g>
		
			<rect x="310.954" y="151.24" transform="matrix(1.466477e-11 -1 1 1.466477e-11 150.313 532.7471)" class="st5" width="61.152" height="79.955"/>
		<path class="st4" d="M382.007,222.293h-80.955v-62.152h80.955V222.293z M302.053,221.293h78.955v-60.152h-78.955V221.293z"/>
	</g>
	<g>
		
			<rect x="456.5" y="85.729" transform="matrix(3.868379e-11 -1 1 3.868379e-11 295.8586 678.2927)" class="st6" width="61.152" height="210.976"/>
		<path class="st4" d="M593.063,222.293H381.088v-62.152h211.976V222.293z M382.088,221.293h209.976v-60.152H382.088V221.293z"/>
	</g>
	<g>
		
			<rect x="601.975" y="151.24" transform="matrix(1.463458e-11 -1 1 1.463458e-11 441.3341 823.7682)" class="st3" width="61.152" height="79.955"/>
		<path class="st4" d="M673.028,222.293h-80.954v-62.152h80.954V222.293z M593.074,221.293h78.954v-60.152h-78.954V221.293z"/>
	</g>
	<g>
		
			<rect x="99.732" y="232.592" transform="matrix(2.549167e-11 -1 1 2.549167e-11 -142.0253 402.6412)" class="st3" width="61.152" height="79.483"/>
		<path class="st4" d="M170.549,303.409H90.066v-62.152h80.483V303.409z M91.066,302.409h78.483v-60.152H91.066V302.409z"/>
	</g>
	<g>
		
			<rect x="195.58" y="216.233" transform="matrix(9.666996e-12 -1 1 9.666996e-12 -46.1772 498.4894)" class="st5" width="61.152" height="112.2"/>
		<path class="st4" d="M282.756,303.409h-113.2v-62.152h113.2V303.409z M170.556,302.409h111.2v-60.152h-111.2V302.409z"/>
	</g>
	<g>
		
			<rect x="334.938" y="189.128" transform="matrix(2.549167e-11 -1 1 2.549167e-11 93.1806 637.8472)" class="st6" width="61.152" height="166.41"/>
		<path class="st4" d="M449.219,303.409h-167.41v-62.152h167.41V303.409z M282.809,302.409h165.41v-60.152h-165.41V302.409z"/>
	</g>
	<g>
		
			<rect x="430.786" y="259.697" transform="matrix(9.666996e-12 -1 1 9.666996e-12 189.0288 733.6954)" class="st3" width="61.152" height="25.273"/>
		<path class="st4" d="M474.499,303.409h-26.273v-62.152h26.273V303.409z M449.226,302.409h24.273v-60.152h-24.273V302.409z"/>
	</g>
	<g>
		
			<rect x="144.562" y="268.878" transform="matrix(3.100992e-11 -1 1 3.100992e-11 -178.3118 528.5873)" class="st3" width="61.152" height="169.142"/>
		<path class="st4" d="M260.209,384.525H90.066v-62.152h170.143V384.525z M91.066,383.525h168.143v-60.152H91.066V383.525z"/>
	</g>
	<g>
		
			<rect x="298.008" y="284.583" transform="matrix(1.174977e-11 -1 1 1.174977e-11 -24.866 682.033)" class="st5" width="61.152" height="137.733"/>
		<path class="st4" d="M397.95,384.525H259.217v-62.152H397.95V384.525z M260.217,383.525H396.95v-60.152H260.217V383.525z"/>
	</g>
	<g>
		
			<rect x="425.794" y="294.594" transform="matrix(3.100992e-11 -1 1 3.100992e-11 102.9203 809.8194)" class="st6" width="61.152" height="117.711"/>
		<path class="st4" d="M515.726,384.525H397.014v-62.152h118.711V384.525z M398.014,383.525h116.711v-60.152H398.014V383.525z"/>
	</g>
	<g>
		
			<rect x="505.608" y="332.499" transform="matrix(1.174977e-11 -1 1 1.174977e-11 182.7343 889.6334)" class="st3" width="61.152" height="41.9"/>
		<path class="st4" d="M557.634,384.525h-42.9v-62.152h42.9V384.525z M515.733,383.525h40.9v-60.152h-40.9V383.525z"/>
	</g>
	<g>
		
			<rect x="121.012" y="373.544" transform="matrix(4.214946e-11 -1 1 4.214946e-11 -282.9774 586.1542)" class="st3" width="61.152" height="122.044"/>
		<path class="st4" d="M213.11,465.642H90.066V403.49H213.11V465.642z M91.066,464.642H212.11V404.49H91.066V464.642z"/>
	</g>
	<g>
		
			<rect x="307.037" y="309.574" transform="matrix(1.597306e-11 -1 1 1.597306e-11 -96.9527 772.1788)" class="st5" width="61.152" height="249.983"/>
		<path class="st4" d="M463.104,465.642H212.122V403.49h250.983V465.642z M213.122,464.642h248.983V404.49H213.122V464.642z"/>
	</g>
	<g>
		
			<rect x="519.568" y="347.114" transform="matrix(4.214946e-11 -1 1 4.214946e-11 115.5785 984.71)" class="st6" width="61.152" height="174.904"/>
		<path class="st4" d="M638.097,465.642H462.192V403.49h175.904V465.642z M463.192,464.642h173.904V404.49H463.192V464.642z"/>
	</g>
	<g>
		
			<rect x="650.595" y="391.002" transform="matrix(1.597306e-11 -1 1 1.597306e-11 246.6053 1115.7368)" class="st3" width="61.152" height="87.127"/>
		<path class="st4" d="M725.234,465.642h-88.127V403.49h88.127V465.642z M638.107,464.642h86.127V404.49h-86.127V464.642z"/>
	</g>
	<path class="st7" d="M738.113,120.06c0.277,0,0.511,0.234,0.511,0.511v386.018c0,0.277-0.234,0.511-0.511,0.511H92.331
		c-0.277,0-0.511-0.234-0.511-0.511V120.571c0-0.277,0.234-0.511,0.511-0.511H738.113 M738.113,118.064H92.331
		c-1.379,0-2.507,1.128-2.507,2.507v386.018c0,1.379,1.128,2.507,2.507,2.507h645.782c1.379,0,2.507-1.128,2.507-2.507V120.571
		C740.619,119.192,739.491,118.064,738.113,118.064L738.113,118.064z"/>
</g>
<g id="Layer_3">
</g>
</svg>
