<svg xmlns="http://www.w3.org/2000/svg"
 viewBox="0 0 1080.000000 1080.000000"
 preserveAspectRatio="xMidYMid meet">
<g transform="translate(0.000000,1080.000000) scale(0.100000,-0.100000)"
fill="currentColor" stroke="none">
<path d="M3935 7785 c-268 -49 -502 -226 -624 -470 -63 -126 -82 -208 -88
-372 -4 -88 -10 -146 -17 -151 -6 -5 -56 -14 -111 -20 -162 -18 -278 -64 -404
-161 -130 -98 -234 -253 -278 -411 -25 -89 -24 -299 0 -390 33 -120 101 -241
188 -335 44 -47 79 -94 79 -105 0 -11 -12 -30 -27 -42 -72 -58 -152 -151 -186
-216 -192 -365 -1 -798 400 -903 66 -17 95 -19 190 -14 111 6 112 6 128 -19
16 -24 15 -28 -18 -103 -61 -137 -72 -250 -37 -387 67 -262 288 -435 558 -438
113 -1 183 16 285 70 l68 35 -3 326 c-5 360 -8 382 -73 516 -49 100 -128 198
-233 289 -73 63 -92 85 -92 106 0 55 44 65 106 24 61 -41 191 -172 245 -248
l49 -69 0 246 c0 234 1 248 20 267 25 25 52 26 73 2 16 -17 17 -120 17 -1281
0 -1199 1 -1263 18 -1256 69 29 121 47 163 56 l49 11 0 1224 c0 1211 0 1224
20 1244 25 25 52 26 73 2 15 -17 17 -62 17 -441 l0 -423 58 79 c67 89 190 209
244 238 51 26 92 13 96 -31 3 -28 -3 -36 -61 -77 -113 -81 -230 -225 -286
-352 -36 -80 -51 -163 -51 -276 l0 -107 53 -40 c119 -91 244 -133 407 -135
106 -1 188 20 292 75 225 120 361 359 344 608 -3 47 -12 108 -21 135 -18 60
-19 97 -3 113 7 7 39 12 73 12 69 0 153 19 221 52 62 29 161 122 201 189 79
132 84 308 13 455 -26 53 -116 154 -166 185 -40 24 -57 52 -49 79 3 10 39 39
80 65 209 130 313 369 264 607 -32 155 -163 322 -304 387 -112 52 -117 55
-129 73 -8 14 -2 35 31 100 23 46 49 108 58 138 112 394 -196 801 -604 800
-88 0 -185 -19 -256 -50 -70 -30 -86 -22 -133 63 -58 106 -127 192 -201 254
-209 173 -473 245 -726 198z"/>
<path d="M6540 6512 c-169 -17 -370 -119 -460 -232 l-30 -38 39 -31 c93 -74
189 -238 217 -371 21 -99 14 -250 -16 -340 -39 -118 -79 -180 -180 -280 l-95
-95 32 -28 c49 -43 122 -160 151 -240 36 -100 38 -258 4 -364 -46 -147 -162
-280 -306 -349 -60 -29 -96 -39 -203 -60 -20 -4 -21 -7 -11 -41 18 -62 14
-248 -6 -327 -35 -134 -111 -268 -200 -356 -25 -24 -46 -50 -46 -57 0 -8 11
-35 24 -61 78 -154 224 -257 400 -283 126 -19 262 15 370 92 56 40 56 40 56
92 0 193 -96 376 -260 498 -50 37 -70 58 -70 74 0 26 29 55 56 55 32 0 150
-95 211 -170 l58 -71 5 326 c4 275 7 327 20 335 22 14 47 12 64 -6 14 -14 16
-129 16 -1121 l0 -1105 67 -63 c114 -105 103 -221 103 1112 0 1140 0 1153 20
1173 25 25 52 26 73 2 15 -16 17 -45 17 -198 l0 -179 48 55 c91 105 192 190
227 190 30 0 55 -25 55 -55 0 -17 -16 -36 -58 -69 -84 -64 -168 -159 -203
-229 -59 -116 -62 -132 -66 -404 l-5 -251 45 -26 c94 -56 216 -75 325 -52 299
62 453 363 326 633 -22 45 -24 59 -15 79 6 13 14 24 18 25 5 0 62 2 128 3 99
2 131 6 180 26 221 86 351 296 316 512 -18 113 -66 201 -156 286 -41 39 -75
78 -75 87 0 8 31 49 70 90 223 241 222 583 -3 815 -102 104 -255 175 -400 187
-99 8 -107 16 -107 117 -1 377 -283 666 -670 688 -36 3 -81 3 -100 0z"/>
<path d="M4336 2224 c-134 -32 -266 -135 -326 -254 -38 -74 -60 -149 -60 -201
0 -38 -24 -69 -53 -69 -9 0 -45 14 -79 32 -84 43 -211 51 -300 20 -135 -48
-227 -151 -262 -294 l-6 -28 2035 0 c1935 0 2036 1 2031 18 -3 9 -8 31 -12 47
-14 60 -68 150 -123 205 -104 104 -257 155 -395 131 -79 -14 -167 -50 -216
-90 -65 -52 -72 -51 -153 31 -39 41 -94 86 -120 102 -198 114 -433 96 -607
-49 -30 -25 -65 -45 -78 -45 -15 0 -41 19 -74 55 -34 36 -75 67 -117 88 -59
28 -76 31 -156 32 -96 0 -146 -16 -228 -72 -50 -35 -76 -23 -110 49 -106 231
-349 351 -591 292z"/>
</g>
</svg>
