<svg xmlns="http://www.w3.org/2000/svg" viewBox="0 0 24 24" fill="none">
  <!-- Wavy ramen block lines -->
  <path d="M4 6c1.5 0 1.5 2 3 2s1.5-2 3-2 1.5 2 3 2 1.5-2 3-2 1.5 2 3 2" stroke="black" stroke-width="1.8" stroke-linecap="round" fill="none"/>
  <path d="M4 10c1.5 0 1.5 2 3 2s1.5-2 3-2 1.5 2 3 2 1.5-2 3-2 1.5 2 3 2" stroke="black" stroke-width="1.8" stroke-linecap="round" fill="none"/>
  <path d="M4 14c1.5 0 1.5 2 3 2s1.5-2 3-2 1.5 2 3 2 1.5-2 3-2 1.5 2 3 2" stroke="black" stroke-width="1.8" stroke-linecap="round" fill="none"/>
  <path d="M4 18c1.5 0 1.5 2 3 2s1.5-2 3-2 1.5 2 3 2 1.5-2 3-2 1.5 2 3 2" stroke="black" stroke-width="1.8" stroke-linecap="round" fill="none"/>
</svg>
