<svg xmlns="http://www.w3.org/2000/svg"
 viewBox="0 0 2140.000000 2016.000000"
 preserveAspectRatio="xMidYMid meet">
<g transform="translate(0.000000,2016.000000) scale(0.100000,-0.100000)"
fill="black" stroke="none">
<path d="M14928 16296 c-86 -31 -109 -58 -278 -321 -358 -556 -501 -778 -920
-1430 -151 -236 -371 -578 -488 -760 -225 -348 -482 -749 -562 -875 -307 -484
-512 -806 -575 -902 l-76 -118 -3927 0 -3927 0 -50 -24 c-62 -29 -107 -76
-136 -141 -21 -46 -22 -64 -21 -215 8 -602 110 -1172 321 -1790 346 -1014 994
-1928 1864 -2629 282 -226 641 -463 904 -595 l93 -46 2 -742 3 -743 24 -45
c30 -58 66 -97 116 -123 l40 -22 2465 0 2465 0 44 23 c56 30 88 65 117 127
l24 50 0 690 0 690 148 74 c536 267 1011 607 1463 1049 547 533 969 1143 1272
1832 297 677 467 1459 471 2160 l1 235 -27 47 c-16 25 -45 60 -65 77 -76 63
-49 61 -911 61 l-785 0 68 73 c38 39 112 117 164 172 53 55 134 141 181 190
47 50 173 182 281 295 107 113 291 306 409 430 117 124 252 266 300 315 47 50
227 239 400 420 173 182 378 395 455 475 77 80 224 233 325 340 102 107 239
251 305 320 385 401 388 404 401 503 12 87 -49 192 -140 240 -59 31 -155 30
-219 -3 -48 -24 -83 -59 -631 -635 -105 -110 -245 -256 -311 -325 -66 -69
-163 -170 -215 -225 -333 -350 -728 -764 -931 -975 -262 -272 -414 -430 -689
-720 -253 -266 -376 -395 -500 -525 -180 -187 -266 -278 -305 -322 l-37 -43
-350 0 c-283 0 -349 2 -345 13 3 7 59 96 124 197 66 102 193 300 283 440 90
140 238 372 330 515 92 143 210 328 262 410 52 83 160 249 238 370 79 121 182
281 230 355 48 74 205 320 350 545 145 226 338 527 430 670 92 143 195 303
229 355 106 160 132 214 138 280 13 137 -88 254 -230 266 -31 3 -67 -1 -89
-10z m382 -4939 c0 -60 -30 -348 -51 -492 -148 -1006 -573 -1941 -1227 -2695
-571 -659 -1282 -1166 -2092 -1492 -293 -118 -710 -241 -1025 -302 -738 -142
-1563 -123 -2288 53 -644 156 -1164 377 -1717 730 -540 344 -1101 880 -1476
1409 -226 319 -442 715 -585 1072 -66 165 -170 471 -193 567 -8 32 -23 92 -34
133 -69 254 -152 796 -152 995 l0 55 5420 0 5420 0 0 -33z m-7533 -5191 c526
-195 1077 -317 1663 -367 186 -16 755 -17 930 -1 502 46 961 139 1386 281 100
34 185 61 188 61 3 0 6 -196 6 -435 l0 -435 -2150 0 -2150 0 0 470 c0 259 2
470 5 470 2 0 57 -20 122 -44z"/>
</g>
</svg>
