<svg xmlns="http://www.w3.org/2000/svg"
 viewBox="0 0 432.000000 232.000000"
 preserveAspectRatio="xMidYMid meet">
<g transform="translate(0.000000,232.000000) scale(0.100000,-0.100000)"
fill="currentColor" stroke="none">
<path d="M919 1728 c-33 -35 -70 -122 -76 -181 -7 -69 16 -150 60 -208 73 -96
85 -161 45 -244 -17 -34 -20 -50 -12 -62 33 -52 83 -41 115 24 48 100 33 224
-41 323 -70 93 -76 178 -20 262 35 50 37 69 12 91 -26 23 -57 21 -83 -5z"/>
<path d="M1346 1717 c-45 -59 -66 -117 -66 -188 0 -82 16 -128 73 -212 54 -79
65 -126 42 -188 -36 -95 -29 -129 26 -129 59 0 106 126 89 237 -10 59 -18 76
-74 156 -39 55 -41 62 -41 131 0 62 4 78 28 114 43 66 33 112 -24 112 -20 0
-35 -10 -53 -33z"/>
<path d="M1784 1723 c-93 -125 -96 -272 -9 -386 70 -91 82 -162 43 -242 -17
-34 -20 -50 -12 -62 32 -51 83 -41 114 22 49 101 34 226 -40 325 -71 95 -76
177 -18 265 30 45 31 49 17 74 -22 39 -68 41 -95 4z"/>
<path d="M3390 1089 c-340 -16 -532 -29 -569 -39 -35 -9 -66 -36 -122 -107 -5
-7 -18 -13 -28 -13 -9 0 -97 -20 -194 -45 l-177 -45 -769 0 c-533 0 -778 -3
-800 -11 -38 -13 -46 -39 -37 -121 7 -73 29 -121 76 -168 46 -46 96 -69 174
-81 37 -6 285 -9 607 -7 l544 3 67 33 c86 42 126 93 151 193 l14 52 64 18 c35
9 96 27 134 38 153 46 225 51 744 51 486 0 488 0 516 22 29 23 55 74 55 109 0
36 -32 90 -64 110 -34 21 -90 22 -386 8z m337 -115 c3 -9 0 -20 -8 -25 -8 -5
-144 -9 -304 -9 -257 1 -288 2 -271 15 15 11 52 15 145 16 69 1 155 5 191 9
36 4 105 8 153 8 72 2 89 -1 94 -14z m-1522 -255 c23 -36 -52 -130 -117 -148
-31 -9 -198 -11 -603 -9 -543 3 -561 4 -599 24 -25 13 -49 36 -65 65 -47 85
-102 79 683 79 477 0 697 -3 701 -11z"/>
</g>
</svg>
