<svg xmlns="http://www.w3.org/2000/svg"
 viewBox="0 0 1080.000000 1080.000000"
 preserveAspectRatio="xMidYMid meet">
<g transform="translate(0.000000,1080.000000) scale(0.100000,-0.100000)"
fill="black" stroke="none">
<path d="M5670 8124 c-14 -2 -52 -9 -84 -15 -85 -15 -196 -62 -286 -120 -101
-64 -235 -204 -280 -291 l-34 -65 -130 -7 c-816 -44 -1583 -342 -2226 -864
-146 -119 -436 -412 -555 -562 -436 -547 -704 -1167 -807 -1870 -20 -138 -22
-194 -23 -507 0 -338 1 -353 20 -379 11 -15 36 -35 55 -45 34 -18 159 -19
3978 -19 4276 0 4007 -3 4144 51 163 64 296 207 356 383 26 79 27 87 26 296 0
118 -6 271 -13 340 -98 998 -592 1879 -1389 2478 l-136 102 -22 85 c-42 167
-145 340 -265 442 -154 131 -295 192 -495 214 -201 21 -388 -27 -570 -148
l-54 -36 -128 17 c-71 9 -143 16 -160 16 -26 0 -34 7 -62 58 -117 207 -321
367 -539 423 -73 19 -267 33 -321 23z m235 -299 c170 -43 309 -154 385 -308
24 -48 40 -90 37 -94 -4 -3 -67 12 -140 35 -282 87 -522 135 -784 158 -46 3
-83 10 -83 13 0 14 87 90 140 123 62 39 124 64 190 77 73 14 191 12 255 -4z
m1659 -351 c107 -27 184 -72 267 -154 110 -109 160 -221 175 -386 12 -137 -47
-306 -146 -417 l-52 -58 -97 93 c-201 195 -434 375 -676 522 -71 44 -132 81
-135 83 -12 10 52 104 112 164 73 73 175 131 270 155 75 18 209 17 282 -2z
m-2306 -135 c428 -31 768 -109 1152 -265 529 -216 1034 -595 1395 -1049 459
-577 719 -1246 765 -1967 10 -161 29 -248 76 -340 l24 -48 -3568 0 -3569 0 -7
133 c-21 415 94 978 293 1432 246 560 661 1075 1156 1434 666 484 1497 728
2283 670z m3103 -726 c243 -196 499 -484 669 -752 346 -544 524 -1175 508
-1802 -3 -126 -6 -150 -26 -191 -35 -70 -96 -134 -160 -165 -50 -24 -69 -28
-147 -28 -108 0 -159 20 -235 91 -76 71 -101 133 -111 279 -17 247 -47 446
-100 668 l-31 127 56 60 c217 235 290 547 200 859 -61 212 -241 423 -449 528
-98 50 -352 105 -399 87 -9 -3 -16 -4 -16 -2 0 3 21 40 48 84 26 44 58 112 72
152 13 39 28 72 31 72 4 0 44 -30 90 -67z m-96 -538 c173 -37 330 -157 405
-309 66 -133 83 -249 55 -380 -15 -69 -68 -198 -90 -216 -8 -7 -23 20 -55 98
-91 226 -254 526 -389 717 -31 44 -60 86 -65 93 -10 17 50 16 139 -3z"/>
<path d="M4345 7056 c-191 -40 -303 -76 -336 -108 -44 -44 -54 -98 -30 -152
38 -86 103 -106 229 -69 48 14 141 36 207 49 66 14 130 31 142 40 89 58 77
200 -20 245 -51 23 -55 23 -192 -5z"/>
<path d="M3310 6643 c-8 -3 -60 -36 -115 -74 -474 -322 -851 -773 -1082 -1297
-73 -163 -162 -423 -169 -491 -6 -56 17 -105 67 -139 60 -42 166 -14 196 50 5
12 36 103 67 200 69 213 204 493 321 668 202 302 467 573 754 769 89 61 124
91 136 118 43 89 -15 192 -112 199 -26 2 -55 1 -63 -3z"/>
</g>
</svg>
